<?xml version="1.0" encoding="utf-8"?>
<!-- Generator: Adobe Illustrator 16.0.0, SVG Export Plug-In . SVG Version: 6.00 Build 0)  -->
<!DOCTYPE svg PUBLIC "-//W3C//DTD SVG 1.1//EN" "http://www.w3.org/Graphics/SVG/1.1/DTD/svg11.dtd">
<svg version="1.1" id="svg1361" xmlns:svg="http://www.w3.org/2000/svg"
	 xmlns="http://www.w3.org/2000/svg" xmlns:xlink="http://www.w3.org/1999/xlink" x="0px" y="0px" width="30px" height="31.5px"
	 viewBox="0 0 30 31.5" enable-background="new 0 0 30 31.5" xml:space="preserve">
<g id='note'>
  <path id="path3743" d="M9.84,0c2.034,4.444,4.257,7.053,5.674,8.497c1.117,1.141,7.25,6.21,0.184,14.133
	   c4.197-7.757,2.688-12.355-4.819-15.193c0,6.197,0,10.846,0,16.424c0.237,6.768-7.528,7.178-9.421,5.379
	    c-1.955-1.855,2.656-8.021,8.384-5.998C9.84,18.282,9.84,8.987,9.84,0z"/>
  <path id="path3743_1_" d="M10.028,5.819c1.33,2.904,2.783,4.609,3.709,5.556c0.73,0.743,4.738,4.059,0.12,9.237
	   c2.743-5.069,1.756-8.076-3.15-9.934C10.706,14.731,10.028,11.694,10.028,5.819z"/>
</g>
</svg>
