<?xml version="1.0" encoding="utf-8"?>
<!-- Generator: Adobe Illustrator 16.0.0, SVG Export Plug-In . SVG Version: 6.00 Build 0)  -->
<!DOCTYPE svg PUBLIC "-//W3C//DTD SVG 1.1//EN" "http://www.w3.org/Graphics/SVG/1.1/DTD/svg11.dtd">
<svg version="1.1" id="svg1361" xmlns:svg="http://www.w3.org/2000/svg"
	 xmlns="http://www.w3.org/2000/svg" xmlns:xlink="http://www.w3.org/1999/xlink" x="0px" y="0px" width="30px" height="50px"
	 viewBox="0 0 30 50" enable-background="new 0 0 30 50" xml:space="preserve">
<path id="note" d="M4.843,4.06C3.909,4.222,3.191,4.814,2.876,5.631c-0.078,0.265-0.078,0.33-0.078,0.689
	c0,0.497,0.034,0.76,0.288,1.152c0.358,0.659,1.111,1.185,1.977,1.379c0.893,0.232,2.326,0.065,4.05-0.457
	c0.252-0.097,0.463-0.167,0.463-0.135c0,0.038-1.609,4.832-1.68,4.999c-0.184,0.427-0.795,1.213-1.33,1.707
	c-0.499,0.458-0.752,0.56-1.145,0.394c-0.324-0.162-0.43-0.329-0.648-1.218c-0.182-0.655-0.322-1.017-0.61-1.274
	c-0.752-0.76-2.047-0.857-3.046-0.265c-0.47,0.295-0.83,0.754-1.04,1.251C0,14.109,0,14.18,0,14.54c0,0.49,0.042,0.754,0.288,1.148
	c0.358,0.657,1.11,1.185,1.976,1.379c0.395,0.103,1.399,0.103,2.083,0c0.568-0.097,1.249-0.257,1.933-0.458
	c0.288-0.095,0.542-0.16,0.542-0.129c0,0-3.515,10.481-3.585,10.641c0,0.033,0.281,0.232,0.569,0.297
	c0.29,0.105,0.578,0.105,0.866,0c0.281-0.064,0.569-0.227,0.569-0.327C5.275,27.059,6.71,22.1,8.465,16.082l3.193-10.938
	l-0.07-0.095c-0.142-0.2-0.43-0.232-0.682-0.135c-0.143,0.065-0.143,0.065-0.571,0.655C9.977,6.096,9.471,6.65,9.183,6.915
	C8.789,7.212,8.578,7.276,8.218,7.147C7.896,6.987,7.782,6.819,7.572,5.93c-0.218-0.882-0.47-1.283-1.006-1.611
	C6.069,4.021,5.421,3.925,4.843,4.06z"/>
</svg>
