<?xml version="1.0" encoding="utf-8"?>
<!-- Generator: Adobe Illustrator 16.0.0, SVG Export Plug-In . SVG Version: 6.00 Build 0)  -->
<!DOCTYPE svg PUBLIC "-//W3C//DTD SVG 1.1//EN" "http://www.w3.org/Graphics/SVG/1.1/DTD/svg11.dtd">
<svg version="1.1" id="svg1361" xmlns:svg="http://www.w3.org/2000/svg"
	 xmlns="http://www.w3.org/2000/svg" xmlns:xlink="http://www.w3.org/1999/xlink" x="0px" y="0px" width="30px" height="50px"
	 viewBox="0 0 30 50" enable-background="new 0 0 30 50" xml:space="preserve">
<g id="g11065" transform="translate(-434,-6)">
	<path id="path11058" fill="none" stroke="#000000" stroke-width="7" d="M452.084,56V6"/>
</g>
<path stroke="#000000" d="M6.667,19.333c0,1.565-1.27,2.833-2.834,2.833l0,0C2.27,22.167,1,20.898,1,19.333l0,0
	C1,17.769,2.27,16.5,3.833,16.5l0,0C5.399,16.5,6.667,17.769,6.667,19.333L6.667,19.333z"/>
<path stroke="#000000" d="M6.667,31.334c0,1.564-1.27,2.833-2.834,2.833l0,0C2.27,34.167,1,32.898,1,31.334l0,0
	C1,29.769,2.27,28.5,3.833,28.5l0,0C5.399,28.5,6.667,29.769,6.667,31.334L6.667,31.334z"/>
<g id="g11065_1_" transform="translate(-434,-6)">
	<path id="path11058_1_" fill="none" stroke="#000000" stroke-width="2" d="M445.709,56V6"/>
</g>
</svg>
