<?xml version="1.0" encoding="utf-8"?>
<!-- Generator: Adobe Illustrator 16.0.0, SVG Export Plug-In . SVG Version: 6.00 Build 0)  -->
<!DOCTYPE svg PUBLIC "-//W3C//DTD SVG 1.1//EN" "http://www.w3.org/Graphics/SVG/1.1/DTD/svg11.dtd">
<svg version="1.1" id="svg1361" xmlns:svg="http://www.w3.org/2000/svg"
	 xmlns="http://www.w3.org/2000/svg" xmlns:xlink="http://www.w3.org/1999/xlink" x="0px" y="0px" width="30px" height="50px"
	 viewBox="0 0 30 50" enable-background="new 0 0 30 50" xml:space="preserve">
<g id="g11065" transform="translate(-434,-6)">
	<path id="path11058" fill="none" stroke="#000000" stroke-width="7" d="M437.084,56V6"/>
</g>
<path stroke="#000000" d="M22,19.333c0,1.565-1.27,2.833-2.834,2.833l0,0c-1.563,0-2.833-1.269-2.833-2.833l0,0
	c0-1.565,1.27-2.833,2.833-2.833l0,0C20.732,16.5,22,17.769,22,19.333L22,19.333z"/>
<path stroke="#000000" d="M22,31.334c0,1.564-1.27,2.833-2.834,2.833l0,0c-1.563,0-2.833-1.269-2.833-2.833l0,0
	c0-1.565,1.27-2.834,2.833-2.834l0,0C20.732,28.5,22,29.769,22,31.334L22,31.334z"/>
<g id="g11065_1_" transform="translate(-434,-6)">
	<path id="path11058_1_" fill="none" stroke="#000000" stroke-width="2" d="M445.709,56V6"/>
</g>
</svg>
