<?xml version="1.0" encoding="utf-8"?>
<!-- Generator: Adobe Illustrator 16.0.0, SVG Export Plug-In . SVG Version: 6.00 Build 0)  -->
<!DOCTYPE svg PUBLIC "-//W3C//DTD SVG 1.1//EN" "http://www.w3.org/Graphics/SVG/1.1/DTD/svg11.dtd">
<svg version="1.1" id="svg1361" xmlns:svg="http://www.w3.org/2000/svg"
	 xmlns="http://www.w3.org/2000/svg" xmlns:xlink="http://www.w3.org/1999/xlink" x="0px" y="0px" width="30px" height="50px"
	 viewBox="0 0 30 50" enable-background="new 0 0 30 50" xml:space="preserve">
<path id="note" d="M2.046,5.065C1.11,5.241,0.392,5.888,0.07,6.78C0,7.068,0,7.139,0,7.533c0,0.542,0.034,0.83,0.288,1.258
	c0.358,0.718,1.11,1.294,1.969,1.505c0.9,0.254,2.405,0.036,4.127-0.535l0.428-0.147l-2.117,5.85l-2.081,5.841
	c0,0,0.07,0.038,0.184,0.113c0.21,0.141,0.569,0.247,0.823,0.247c0.428,0,0.97-0.247,1.04-0.464c0-0.07,1.004-3.481,2.222-7.533
	l2.151-7.425l-0.07-0.104C8.789,5.92,8.431,5.85,8.211,6.024c-0.07,0.07-0.182,0.218-0.252,0.324
	C7.635,6.89,6.812,7.853,6.384,8.211C5.99,8.535,5.772,8.569,5.414,8.429C5.09,8.253,4.983,8.071,4.766,7.101
	c-0.21-0.963-0.462-1.4-1.004-1.758C3.261,5.025,2.615,4.919,2.046,5.065z"/>
</svg>
