<?xml version="1.0" encoding="utf-8"?>
<!-- Generator: Adobe Illustrator 16.0.0, SVG Export Plug-In . SVG Version: 6.00 Build 0)  -->
<!DOCTYPE svg PUBLIC "-//W3C//DTD SVG 1.1//EN" "http://www.w3.org/Graphics/SVG/1.1/DTD/svg11.dtd">
<svg version="1.1"
	 id="svg2" inkscape:output_extension="org.inkscape.output.svg.inkscape" sodipodi:docname="llpd-1court.svg" inkscape:version="0.46" sodipodi:version="0.32" xmlns:dc="http://purl.org/dc/elements/1.1/" xmlns:cc="http://creativecommons.org/ns#" xmlns:rdf="http://www.w3.org/1999/02/22-rdf-syntax-ns#" xmlns:svg="http://www.w3.org/2000/svg" xmlns:sodipodi="http://sodipodi.sourceforge.net/DTD/sodipodi-0.dtd" xmlns:inkscape="http://www.inkscape.org/namespaces/inkscape"
	 xmlns="http://www.w3.org/2000/svg" xmlns:xlink="http://www.w3.org/1999/xlink" x="0px" y="0px" width="14.5px" height="21.5px"
	 viewBox="0 0 14.5 21.5" enable-background="new 0 0 14.5 21.5" xml:space="preserve">
<defs>
	
	
		<inkscape:perspective  inkscape:persp3d-origin="372.04724 : 350.78739 : 1" id="perspective10" inkscape:vp_z="744.09448 : 526.18109 : 1" inkscape:vp_y="0 : 1000 : 0" inkscape:vp_x="0 : 526.18109 : 1" sodipodi:type="inkscape:persp3d">
		</inkscape:perspective>
	
		<inkscape:perspective  inkscape:persp3d-origin="372.04724 : 350.78739 : 1" id="perspective2447" inkscape:vp_z="744.09448 : 526.18109 : 1" inkscape:vp_y="0 : 1000 : 0" inkscape:vp_x="0 : 526.18109 : 1" sodipodi:type="inkscape:persp3d">
		</inkscape:perspective>
</defs>
<sodipodi:namedview  inkscape:window-y="116" inkscape:window-x="88" inkscape:window-height="667" inkscape:window-width="779" inkscape:current-layer="layer1" inkscape:document-units="px" inkscape:pageshadow="2" inkscape:pageopacity="0.0" showgrid="false" inkscape:cy="174" inkscape:cx="66.5" inkscape:zoom="1.3275862" borderopacity="1.0" bordercolor="#666666" pagecolor="#ffffff" id="base">
	</sodipodi:namedview>
<g id="layer1" inkscape:groupmode="layer" inkscape:label="Calque 1">
	<path id="path2453" d="M5.602,19.407c-0.105-0.116-0.125-0.47-0.183-3.309C5.194,5.219,5.142,1.516,5.209,1.389
		c0.081-0.152,0.415-0.247,0.63-0.179c0.079,0.025,0.173,0.123,0.209,0.217c0.038,0.102,0.065,1.97,0.065,4.534
		c0,2.757,0.025,4.36,0.067,4.36c0.037,0,0.263-0.107,0.502-0.238C7.42,9.682,7.936,9.54,8.678,9.535
		c0.581-0.004,0.708,0.019,1.089,0.191c1.51,0.688,2.192,2.919,1.402,4.585c-0.43,0.905-0.833,1.316-2.976,3.027
		c-1.295,1.033-1.299,1.037-1.761,1.622C5.947,19.572,5.815,19.644,5.602,19.407z M6.954,16.715C8.749,15,9.362,13.426,8.811,11.951
		c-0.157-0.419-0.546-0.841-0.836-0.904c-0.494-0.108-1.032,0.127-1.376,0.602c-0.405,0.56-0.443,0.831-0.447,3.211
		c-0.003,2.089,0.018,2.391,0.168,2.391C6.36,17.251,6.646,17.01,6.954,16.715z"/>
</g>
</svg>
