<?xml version="1.0" encoding="utf-8"?>
<!-- Generator: Adobe Illustrator 16.0.0, SVG Export Plug-In . SVG Version: 6.00 Build 0)  -->
<!DOCTYPE svg PUBLIC "-//W3C//DTD SVG 1.1//EN" "http://www.w3.org/Graphics/SVG/1.1/DTD/svg11.dtd">
<svg version="1.1" id="Ebene_1" xmlns="http://www.w3.org/2000/svg" xmlns:xlink="http://www.w3.org/1999/xlink" x="0px" y="0px"
	 width="148.216px" height="383.673px" viewBox="0 0 148.216 383.673" enable-background="new 0 0 148.216 383.673"
	 xml:space="preserve">
<g>
	<title>Layer 1</title>
	<path id="svg_1" d="M95.753,185.419c15.537,0,28.165,5.144,37.884,15.43c9.719,10.287,14.579,22.028,14.579,35.224
		c0,13.196-3.264,24.334-9.791,33.415c-6.527,9.01-15.466,15.785-26.817,20.325c-0.142,0.143-0.674,0.391-1.596,0.745
		s-1.383,0.745-1.383,1.171c0,0.496,1.064,6.846,3.192,19.049c2.199,12.202,3.299,21.886,3.299,29.051
		c0,7.166-1.064,13.48-3.192,18.942c-2.199,5.463-4.789,9.72-7.769,12.771s-6.988,5.817-12.025,8.301
		c-5.037,2.482-11.6,3.76-19.687,3.83c-8.088,0.071-14.969-1.063-20.645-3.405c-9.577-3.973-15.927-10.783-19.048-20.432
		c-1.277-3.831-1.951-7.697-2.022-11.6c0-6.952,2.128-12.876,6.385-17.771c4.257-4.896,9.72-7.343,16.388-7.343
		c6.669,0,11.919,2.129,15.75,6.385c3.831,4.257,5.746,9.436,5.746,15.537c0,6.03-1.419,10.713-4.256,14.047
		c-2.838,3.405-6.456,5.746-10.854,7.023s-6.562,2.412-6.492,3.405c0,1.632,1.525,3.087,4.576,4.363
		c3.122,1.349,7.023,2.022,11.706,2.022c4.683,0,8.726-0.391,12.132-1.171c3.405-0.78,7.094-2.341,11.067-4.683
		c3.902-2.341,6.988-6.102,9.258-11.28c2.271-5.179,3.405-11.457,3.405-18.835c0-7.379-1.951-22.064-5.853-44.057
		c-0.142-1.135-0.426-1.81-0.852-2.021c-0.426-0.213-2.057-0.036-4.895,0.531c-2.696,0.568-6.917,0.852-12.664,0.852
		c-12.912,0-24.511-2.058-34.798-6.172c-10.216-4.115-18.516-9.648-24.901-16.602C8.527,258.279,2,240.934,2,220.431
		c0-20.574,8.123-41.042,24.369-61.402c9.01-11.067,22.454-23.979,40.332-38.735c1.135-0.993,1.845-1.774,2.128-2.342
		c0.284-0.567,0.248-1.561-0.106-2.979c-2.058-11.918-3.086-23.802-3.086-35.649c0-29.371,7.13-51.967,21.39-67.787
		C93.412,4.583,98.129,1.071,101.18,1c1.135,0,2.873,1.17,5.214,3.512c2.341,2.341,4.363,4.824,6.065,7.449
		c9.436,13.834,14.154,30.754,14.154,50.761c-0.071,12.202-2.661,24.511-7.769,36.926s-12.238,23.625-21.39,33.627
		c-3.902,4.328-7.981,8.478-12.238,12.451c-1.135,1.135-1.561,2.518-1.277,4.15l5.427,31.606c0.213,2.057,0.603,3.228,1.171,3.512
		C91.106,185.277,92.844,185.419,95.753,185.419z M19.452,235.968c0,15.252,5.747,27.633,17.24,37.139
		c11.493,9.507,26.675,14.26,45.546,14.26c4.186,0,7.698-0.248,10.535-0.744c2.838-0.497,4.363-0.888,4.576-1.171
		c0.213-0.284,0.248-1.029,0.106-2.235l-10.854-64.914c-0.355-1.135-0.745-1.809-1.17-2.021c-0.426-0.213-1.49-0.106-3.193,0.319
		c-6.668,1.915-11.989,5.108-15.962,9.577c-3.973,4.47-5.924,9.471-5.853,15.005c0,5.534,1.455,10.429,4.363,14.686
		s6.066,7.13,9.471,8.62c3.405,1.489,5.108,2.73,5.108,3.725c0,1.631-0.852,2.447-2.554,2.447s-3.689-0.461-5.959-1.384
		c-7.52-2.625-13.586-7.308-18.197-14.047c-4.541-6.739-6.811-14.827-6.811-24.263s2.873-18.091,8.62-25.966
		s13.408-13.373,22.986-16.494c2.058-0.639,3.157-1.171,3.299-1.597c0.142-0.426,0.106-1.667-0.106-3.725l-4.576-27.881
		c-0.284-1.135-0.568-1.773-0.852-1.916s-0.993,0.213-2.128,1.064c-13.692,11.067-24.83,21.39-33.415,30.967
		C26.192,200.673,19.452,217.521,19.452,235.968z M130.338,250.333c0-9.436-3.122-17.522-9.365-24.263
		c-6.243-6.739-13.87-10.499-22.88-11.28c-1.277-0.142-2.057,0-2.341,0.426s-0.284,1.312,0,2.66l10.642,62.147
		c0.142,1.277,0.426,1.986,0.851,2.129c0.426,0.142,1.312-0.143,2.661-0.852c6.243-3.192,11.209-7.484,14.898-12.876
		C128.494,263.032,130.338,257.002,130.338,250.333z M104.479,34.84c-7.166,0-13.799,5.144-19.9,15.43
		c-6.101,10.287-9.152,23.447-9.152,39.48c0,7.733,0.426,14.402,1.277,20.007c0.426,2.482,1.384,3.086,2.874,1.809
		c4.469-3.902,9.045-8.194,13.728-12.876c16.104-16.104,24.157-31.429,24.157-45.972c0-5.817-1.206-10.251-3.618-13.302
		C111.36,36.366,108.239,34.84,104.479,34.84z"/>
</g>
</svg>
