<?xml version="1.0" encoding="utf-8"?>
<!-- Generator: Adobe Illustrator 16.0.0, SVG Export Plug-In . SVG Version: 6.00 Build 0)  -->
<!DOCTYPE svg PUBLIC "-//W3C//DTD SVG 1.1//EN" "http://www.w3.org/Graphics/SVG/1.1/DTD/svg11.dtd">
<svg version="1.1" id="svg1361" xmlns:svg="http://www.w3.org/2000/svg"
	 xmlns="http://www.w3.org/2000/svg" xmlns:xlink="http://www.w3.org/1999/xlink" x="0px" y="0px" width="30px" height="31.5px"
	 viewBox="0 0 30 31.5" enable-background="new 0 0 30 31.5" xml:space="preserve">
<g id='note'>
  <path d="M7.65,29.465c-1.717-0.09-3.059-1.613-3.597-3.188c-0.326-0.926-0.147-2.312,0.939-2.572c1.575-0.27,2.88,1.068,3.613,2.35
  	c0.521,0.949,0.811,2.445-0.168,3.197C8.205,29.402,7.925,29.467,7.65,29.465z M10.385,24.062c-1.934-1.177-4.377-1.269-6.496-0.607
  	C2.547,23.924,1.013,24.922,1,26.546c-0.001,1.591,1.48,2.584,2.791,3.06c2.075,0.678,4.468,0.617,6.405-0.465
  	c1.098-0.584,2.068-1.791,1.739-3.131C11.754,25.148,11.094,24.503,10.385,24.062z"/>
  <rect x="10.309" width="1.5" height="26.959"/>
</g>
</svg>
