<?xml version="1.0" encoding="utf-8"?>
<!-- Generator: Adobe Illustrator 16.0.0, SVG Export Plug-In . SVG Version: 6.00 Build 0)  -->
<!DOCTYPE svg PUBLIC "-//W3C//DTD SVG 1.1//EN" "http://www.w3.org/Graphics/SVG/1.1/DTD/svg11.dtd">
<svg version="1.1" id="svg1361" xmlns:svg="http://www.w3.org/2000/svg"
	 xmlns="http://www.w3.org/2000/svg" xmlns:xlink="http://www.w3.org/1999/xlink" x="0px" y="0px" width="30px" height="50px"
	 viewBox="0 0 30 50" enable-background="new 0 0 30 50" xml:space="preserve">
<path id="note" d="M3.076,0.059C2.829,0.163,2.681,0.523,2.795,0.775c0.034,0.036,0.392,0.464,0.752,0.936
	C4.37,2.638,4.51,2.857,4.692,3.286C5.41,4.754,5.016,6.625,3.758,7.808C3.651,7.948,3.187,8.34,2.751,8.664
	c-1.251,1.077-1.827,1.688-2.04,2.229c-0.077,0.142-0.077,0.283-0.077,0.5c-0.034,0.499,0,0.542,1.478,2.257
	c2.003,2.404,3.438,4.091,3.549,4.197l0.106,0.104l-0.141-0.068c-1.977-0.824-4.197-1.217-4.95-0.857
	c-0.254,0.104-0.401,0.252-0.506,0.499c-0.29,0.612-0.212,1.512,0.218,2.833c0.392,1.188,1.181,2.761,1.967,3.945
	c0.324,0.506,0.936,1.292,1.006,1.329c0.106,0.105,0.253,0.07,0.358,0c0.106-0.141,0.106-0.254-0.104-0.499
	c-0.752-1.077-1.11-3.305-0.682-4.488c0.175-0.533,0.395-0.822,0.787-1.004c1.041-0.465,3.341,0.111,4.304,1.074
	c0.07,0.072,0.218,0.222,0.288,0.254c0.254,0.106,0.612-0.032,0.718-0.288c0.147-0.254,0.07-0.43-0.254-0.824
	c-0.604-0.716-2.434-2.869-2.686-3.191c-0.648-0.754-0.936-1.469-1.006-2.369c-0.034-1.147,0.429-2.362,1.294-3.157
	C6.483,11,6.949,10.606,7.379,10.284c1.328-1.112,1.87-1.723,2.081-2.3C9.607,7.52,9.538,7.091,9.213,6.697
	C9.102,6.592,7.849,5.044,6.38,3.288C4.37,0.924,3.651,0.06,3.547,0.024C3.399-0.012,3.223-0.012,3.076,0.059z"/>
</svg>
