<?xml version="1.0" encoding="utf-8"?>
<!-- Generator: Adobe Illustrator 16.0.0, SVG Export Plug-In . SVG Version: 6.00 Build 0)  -->
<!DOCTYPE svg PUBLIC "-//W3C//DTD SVG 1.1//EN" "http://www.w3.org/Graphics/SVG/1.1/DTD/svg11.dtd">
<svg version="1.1" id="svg1361" xmlns:svg="http://www.w3.org/2000/svg"
	 xmlns="http://www.w3.org/2000/svg" xmlns:xlink="http://www.w3.org/1999/xlink" x="0px" y="0px" width="30px" height="31.5px"
	 viewBox="0 0 30 31.5" enable-background="new 0 0 30 31.5" xml:space="preserve">
<path id="note" d="M7.65,29.918c-1.717-0.09-3.059-1.613-3.597-3.188c-0.326-0.926-0.147-2.312,0.939-2.572
	c1.575-0.27,2.88,1.068,3.613,2.35c0.521,0.949,0.811,2.445-0.168,3.197C8.205,29.855,7.925,29.92,7.65,29.918z M10.385,24.518
	c-1.934-1.178-4.377-1.27-6.496-0.608C2.547,24.377,1.013,25.375,1,26.999c-0.001,1.591,1.48,2.584,2.791,3.06
	c2.075,0.678,4.468,0.616,6.405-0.466c1.098-0.584,2.068-1.791,1.739-3.13C11.754,25.604,11.094,24.956,10.385,24.518z"/>
<rect x="-0.167" y="0.333" fill="none" width="30.167" height="31.167"/>
</svg>
